<svg xmlns="http://www.w3.org/2000/svg" viewBox="0 0 1200 675" role="img" aria-labelledby="title desc"><title id="title">Yarsha Web3 Messaging App thumbnail</title><desc id="desc">Realistic product mockup thumbnail showing mobile Web3 chat, wallet, blink payment, and transaction review screens.</desc><defs><linearGradient id="bg" x1="0" x2="1" y1="0" y2="1"><stop offset="0" stop-color="#eef4ff"/><stop offset="1" stop-color="#184BFF"/></linearGradient><filter id="shadow" x="-20%" y="-20%" width="140%" height="140%"><feDropShadow dx="0" dy="24" stdDeviation="24" flood-opacity=".22"/></filter></defs><rect width="1200" height="675" rx="36" fill="url(#bg)"/><circle cx="1020" cy="120" r="180" fill="#fff" opacity=".16"/><text x="72" y="105" font-family="Inter, Arial, sans-serif" font-size="28" font-weight="700" fill="#0b1020">Yarsha</text><text x="72" y="146" font-family="Inter, Arial, sans-serif" font-size="18" fill="#1e2a44" opacity=".9">Web3 messaging · wallet · blinks</text><g filter="url(#shadow)"><rect x="525" y="90" width="230" height="490" rx="36" fill="#0b1020"/><rect x="540" y="118" width="200" height="434" rx="24" fill="#ffffff"/><rect x="562" y="150" width="96" height="14" rx="7" fill="#dbe6ff"/><rect x="562" y="190" width="156" height="56" rx="18" fill="#184BFF"/><rect x="562" y="266" width="118" height="42" rx="16" fill="#f1f5ff"/><rect x="592" y="332" width="126" height="42" rx="16" fill="#eaf0ff"/><rect x="562" y="412" width="156" height="76" rx="20" fill="#0b1020"/><text x="582" y="458" font-family="Inter, Arial" font-size="17" font-weight="700" fill="#fff">Review Send</text></g><g filter="url(#shadow)"><rect x="785" y="145" width="230" height="430" rx="36" fill="#111827"/><rect x="800" y="173" width="200" height="374" rx="24" fill="#f8fbff"/><rect x="824" y="210" width="150" height="84" rx="22" fill="#e8efff"/><rect x="824" y="322" width="150" height="16" rx="8" fill="#c6d6ff"/><rect x="824" y="360" width="110" height="16" rx="8" fill="#dce6ff"/><rect x="824" y="455" width="150" height="54" rx="18" fill="#184BFF"/></g><g><rect x="72" y="455" width="330" height="72" rx="22" fill="#fff" opacity=".88"/><text x="98" y="499" font-family="Inter, Arial" font-size="24" font-weight="700" fill="#184BFF">Product Design</text></g></svg>