<svg xmlns="http://www.w3.org/2000/svg" viewBox="0 0 1200 675" role="img" aria-labelledby="title desc"><title id="title">Splashnode website thumbnail</title><desc id="desc">Realistic website mockup for a content, device, and data management platform with dashboard cards and analytics blocks.</desc><defs><linearGradient id="bg" x1="0" x2="1" y1="0" y2="1"><stop offset="0" stop-color="#0f172a"/><stop offset="1" stop-color="#0891b2"/></linearGradient><filter id="s"><feDropShadow dx="0" dy="24" stdDeviation="24" flood-opacity=".3"/></filter></defs><rect width="1200" height="675" rx="36" fill="url(#bg)"/><text x="72" y="105" font-family="Inter,Arial" font-size="30" font-weight="800" fill="#fff">Splashnode</text><text x="72" y="148" font-family="Inter,Arial" font-size="18" fill="#cffafe">Website design · front-end build</text><g filter="url(#s)"><rect x="210" y="165" width="780" height="430" rx="30" fill="#fff"/><rect x="260" y="220" width="260" height="24" rx="12" fill="#0f172a"/><rect x="260" y="270" width="380" height="16" rx="8" fill="#94a3b8"/><rect x="260" y="330" width="190" height="130" rx="24" fill="#cffafe"/><rect x="490" y="330" width="190" height="130" rx="24" fill="#ecfeff"/><rect x="720" y="330" width="190" height="130" rx="24" fill="#cffafe"/><path d="M300 420c60-80 100 40 150-30M530 420c60-80 100 40 150-30M760 420c60-80 100 40 150-30" fill="none" stroke="#0891b2" stroke-width="10" stroke-linecap="round"/></g></svg>