<svg xmlns="http://www.w3.org/2000/svg" viewBox="0 0 1200 675" role="img" aria-labelledby="title desc"><title id="title">Neverwinter Live Parser thumbnail</title><desc id="desc">Realistic desktop app mockup showing combat log parser dashboard, player performance chart, encounter table, and live tracking panel.</desc><defs><linearGradient id="bg" x1="0" x2="1" y1="0" y2="1"><stop offset="0" stop-color="#050816"/><stop offset="1" stop-color="#3b0764"/></linearGradient><filter id="s"><feDropShadow dx="0" dy="24" stdDeviation="24" flood-opacity=".34"/></filter></defs><rect width="1200" height="675" rx="36" fill="url(#bg)"/><text x="72" y="105" font-family="Inter,Arial" font-size="30" font-weight="800" fill="#fff">Neverwinter Live Parser</text><text x="72" y="148" font-family="Inter,Arial" font-size="18" fill="#ddd6fe">Desktop combat log analysis · live tracking</text><g filter="url(#s)"><rect x="160" y="190" width="880" height="380" rx="28" fill="#0f172a"/><rect x="160" y="190" width="880" height="54" rx="28" fill="#111827"/><rect x="210" y="290" width="260" height="220" rx="22" fill="#1e293b"/><rect x="510" y="290" width="210" height="220" rx="22" fill="#1e293b"/><rect x="760" y="290" width="230" height="220" rx="22" fill="#1e293b"/><path d="M235 450 L285 390 L335 424 L385 340 L440 370" fill="none" stroke="#a855f7" stroke-width="12" stroke-linecap="round" stroke-linejoin="round"/><rect x="535" y="330" width="150" height="18" rx="9" fill="#a855f7"/><rect x="535" y="370" width="118" height="18" rx="9" fill="#6d28d9"/><rect x="535" y="410" width="170" height="18" rx="9" fill="#8b5cf6"/><text x="792" y="360" font-family="Inter,Arial" font-size="18" fill="#e5e7eb">Live Encounter</text><circle cx="795" cy="420" r="42" fill="#a855f7" opacity=".28"/><circle cx="795" cy="420" r="18" fill="#a855f7"/></g></svg>