<svg xmlns="http://www.w3.org/2000/svg" viewBox="0 0 1200 675" role="img" aria-labelledby="title desc"><title id="title">Zapp Today logistics app thumbnail</title><desc id="desc">Realistic mobile app mockup showing customer booking, driver task, route tracking, and delivery status screens.</desc><defs><linearGradient id="bg" x1="0" x2="1" y1="0" y2="1"><stop offset="0" stop-color="#111827"/><stop offset="1" stop-color="#f97316"/></linearGradient><filter id="s"><feDropShadow dx="0" dy="24" stdDeviation="24" flood-opacity=".3"/></filter></defs><rect width="1200" height="675" rx="36" fill="url(#bg)"/><text x="72" y="105" font-family="Inter,Arial" font-size="30" font-weight="800" fill="#fff">Zapp Today</text><text x="72" y="148" font-family="Inter,Arial" font-size="18" fill="#ffedd5">Customer and driver mobile flows</text><g filter="url(#s)"><rect x="450" y="120" width="210" height="455" rx="34" fill="#111827"/><rect x="464" y="150" width="182" height="395" rx="24" fill="#fff"/><rect x="488" y="196" width="130" height="18" rx="9" fill="#f97316"/><rect x="488" y="248" width="120" height="96" rx="20" fill="#ffedd5"/><path d="M520 316h60l38-38" stroke="#f97316" stroke-width="10" fill="none" stroke-linecap="round"/><rect x="488" y="388" width="134" height="48" rx="18" fill="#f97316"/></g><g filter="url(#s)"><rect x="700" y="170" width="210" height="405" rx="34" fill="#111827"/><rect x="714" y="200" width="182" height="345" rx="24" fill="#fff"/><rect x="738" y="244" width="120" height="18" rx="9" fill="#f97316"/><circle cx="804" cy="336" r="58" fill="#ffedd5"/><path d="M804 290v46l38 30" stroke="#f97316" stroke-width="10" fill="none" stroke-linecap="round"/><rect x="738" y="438" width="134" height="48" rx="18" fill="#111827"/></g></svg>