<svg xmlns="http://www.w3.org/2000/svg" viewBox="0 0 1200 675" role="img" aria-labelledby="title desc"><title id="title">Mokshya.io Web3 protocol website thumbnail</title><desc id="desc">Realistic website mockup thumbnail showing Web3 protocol landing page, developer sections, cards, and trust-focused content blocks.</desc><defs><linearGradient id="bg" x1="0" x2="1" y1="0" y2="1"><stop offset="0" stop-color="#090E1A"/><stop offset="1" stop-color="#243BFF"/></linearGradient><filter id="s"><feDropShadow dx="0" dy="24" stdDeviation="22" flood-color="#000" flood-opacity=".35"/></filter></defs><rect width="1200" height="675" rx="36" fill="url(#bg)"/><circle cx="980" cy="80" r="220" fill="#fff" opacity=".08"/><text x="72" y="105" font-family="Inter, Arial" font-size="30" font-weight="800" fill="#fff">Mokshya.io</text><text x="72" y="148" font-family="Inter, Arial" font-size="18" fill="#c7d2fe">Web3 protocol website · developer storytelling</text><g filter="url(#s)"><rect x="250" y="160" width="700" height="390" rx="26" fill="#ffffff"/><rect x="250" y="160" width="700" height="64" rx="26" fill="#f5f7ff"/><circle cx="290" cy="192" r="8" fill="#ff5f57"/><circle cx="318" cy="192" r="8" fill="#ffbd2e"/><circle cx="346" cy="192" r="8" fill="#28c840"/><rect x="300" y="270" width="260" height="22" rx="11" fill="#111827"/><rect x="300" y="314" width="380" height="14" rx="7" fill="#9ca3af"/><rect x="300" y="346" width="310" height="14" rx="7" fill="#cbd5e1"/><rect x="300" y="405" width="150" height="46" rx="16" fill="#243BFF"/><rect x="500" y="405" width="150" height="46" rx="16" fill="#eef2ff"/><rect x="720" y="270" width="150" height="170" rx="24" fill="#111827"/><path d="M758 354h74M795 317v74" stroke="#8b5cf6" stroke-width="16" stroke-linecap="round"/></g><rect x="72" y="455" width="330" height="72" rx="22" fill="#fff" opacity=".12"/><text x="98" y="499" font-family="Inter, Arial" font-size="24" font-weight="700" fill="#fff">Website Design</text></svg>